<?xml version="1.0" encoding="UTF-8"?>
<svg width="671.79" height="671.79" version="1.1" viewBox="0 0 671.78668 671.78668" xml:space="preserve" xmlns="http://www.w3.org/2000/svg" xmlns:cc="http://creativecommons.org/ns#" xmlns:dc="http://purl.org/dc/elements/1.1/" xmlns:rdf="http://www.w3.org/1999/02/22-rdf-syntax-ns#"><metadata><rdf:RDF><cc:Work rdf:about=""><dc:format>image/svg+xml</dc:format><dc:type rdf:resource="http://purl.org/dc/dcmitype/StillImage"/><dc:title/></cc:Work></rdf:RDF></metadata><g transform="matrix(1.3333 0 0 -1.3333 0 671.79)" fill="#fff"><g transform="scale(.1)" fill="#fff"><path d="m2519.2 5038.4c-684.18 0-769.97-2.9-1038.7-15.16-268.14-12.23-451.27-54.82-611.51-117.09-165.66-64.38-306.15-150.52-446.2-290.57-140.05-140.05-226.19-280.55-290.57-446.21-62.274-160.24-104.86-343.37-117.1-611.51-12.258-268.7-15.156-354.49-15.156-1038.7 0-684.17 2.8984-769.96 15.156-1038.7 12.238-268.14 54.824-451.27 117.1-611.51 64.379-165.66 150.52-306.15 290.57-446.21 140.06-140.05 280.54-226.19 446.2-290.57 160.24-62.27 343.37-104.86 611.51-117.09 268.7-12.258 354.49-15.16 1038.7-15.16 684.17 0 769.96 2.9023 1038.7 15.16 268.14 12.23 451.27 54.82 611.51 117.09 165.66 64.379 306.15 150.52 446.21 290.57 140.05 140.06 226.19 280.55 290.57 446.21 62.27 160.24 104.86 343.37 117.09 611.51 12.26 268.7 15.16 354.49 15.16 1038.7 0 684.18-2.9 769.97-15.16 1038.7-12.23 268.14-54.82 451.27-117.09 611.51-64.38 165.66-150.52 306.16-290.57 446.21-140.06 140.05-280.55 226.19-446.21 290.57-160.24 62.27-343.37 104.86-611.51 117.09-268.7 12.26-354.49 15.16-1038.7 15.16zm0-453.91c672.65 0 752.33-2.57 1018-14.69 245.62-11.2 379.01-52.24 467.78-86.74 117.59-45.7 201.51-100.29 289.66-188.44 88.16-88.16 142.75-172.08 188.45-289.67 34.5-88.77 75.54-222.16 86.74-467.78 12.12-265.64 14.69-345.32 14.69-1018 0-672.65-2.57-752.33-14.69-1018-11.2-245.62-52.24-379.01-86.74-467.78-45.7-117.59-100.29-201.51-188.45-289.66-88.15-88.16-172.07-142.75-289.66-188.45-88.77-34.5-222.16-75.539-467.78-86.738-265.6-12.122-345.27-14.692-1018-14.692-672.71 0-752.37 2.57-1018 14.692-245.62 11.199-379.01 52.238-467.78 86.738-117.59 45.699-201.51 100.29-289.66 188.45-88.152 88.152-142.75 172.07-188.45 289.66-34.5 88.77-75.535 222.16-86.742 467.78-12.121 265.64-14.688 345.32-14.688 1018 0 672.66 2.567 752.34 14.688 1018 11.207 245.62 52.242 379.01 86.742 467.78 45.699 117.59 100.29 201.51 188.44 289.66 88.156 88.16 172.07 142.75 289.66 188.45 88.77 34.5 222.16 75.54 467.78 86.74 265.64 12.12 345.32 14.69 1018 14.69"/><path d="m2519.2 1679.5c-463.78 0-839.74 375.96-839.74 839.73 0 463.78 375.96 839.74 839.74 839.74 463.77 0 839.73-375.96 839.73-839.74 0-463.77-375.96-839.73-839.73-839.73zm0 2133.4c-714.47 0-1293.6-579.18-1293.6-1293.6 0-714.46 579.18-1293.6 1293.6-1293.6 714.46 0 1293.6 579.18 1293.6 1293.6 0 714.47-579.18 1293.6-1293.6 1293.6"/><path d="m4166.3 3864c0-166.96-135.35-302.3-302.31-302.3-166.95 0-302.3 135.34-302.3 302.3s135.35 302.31 302.3 302.31c166.96 0 302.31-135.35 302.31-302.31"/></g></g></svg>
