<svg xmlns="http://www.w3.org/2000/svg" viewBox="0 0 872.79999 872.79999" style="display:block" id="svg4102"><rect id="backgroundrect" width="100%" height="100%" x="-126.9" y="-15.699996" style="fill:none;stroke:none"/><defs id="defs4083"><clipPath id="c0_1"><path d="M0 902.9V0h1077.1v902.9z" id="svg_1"/></clipPath><clipPath id="c1_1"><path d="M341.3 888.5L206 753.2l201.7-201.7L543 686.8z" id="svg_2"/></clipPath><clipPath id="c2_1"><path d="M230.3 626.8V74.5h614.2v552.3z" id="svg_3"/></clipPath></defs><g class="currentLayer" id="g4100" transform="translate(-100.45001 -15.699996)"><path d="M244.2 15.7h209.4v330.8H126.9V133c0-64.7 52.6-117.3 117.3-117.3z" class="g2_1" id="svg_9" style="fill:#42f1ab"/><path d="M446.1 15.7h180.3v330.8H446.1z" class="g2_1" id="svg_10" style="fill:#42f1ab"/><path d="M622.2 15.7h207.2c64.8 0 117.4 52.6 117.4 117.3v213.5H622.2z" class="g2_1" id="svg_11" style="fill:#42f1ab"/><path d="M126.9 340.2h326.7v33.7H126.9z" class="g2_1" id="svg_12" style="fill:#42f1ab"/><path d="M448.3 340.2h178.1v33.7H448.3z" class="g2_1" id="svg_13" style="fill:#42f1ab"/><path d="M622.2 340.2h324.6v33.7H622.2z" class="g2_1" id="svg_14" style="fill:#42f1ab"/><path d="M126.9 371.5h326.7v324.4H244.2c-64.7 0-117.3-52.6-117.3-117.3V371.5z" class="g2_1" id="svg_15" style="fill:#42f1ab"/><path d="M449.5 371.5h176.9v324.4H449.5z" class="g2_1" id="svg_16" style="fill:#42f1ab"/><path d="M622.2 371.5h324.6v207.1c0 64.7-52.6 117.3-117.4 117.3H622.2z" class="g2_1" id="svg_17" style="fill:#42f1ab"/><g clip-path="url(#c1_1)" id="svg_18"><path d="M543 686.8L341.3 888.5l-2.7-267.9z" class="g2_1" id="svg_19" style="fill:#42f1ab"/></g><g clip-path="url(#c2_1)" id="svg_20"><path d="M842.4 210.9C807.8 33 590.9 30.1 537.4 196.3 483.9 30.1 267 33 232.4 210.9c-31.4 161.3 305 415.9 305 415.9s336.4-254.6 305-415.9z" id="svg_21" style="fill:#fff"/></g></g></svg>
