<?xml version="1.0" encoding="UTF-8" standalone="no"?>
<svg
   xmlns:dc="http://purl.org/dc/elements/1.1/"
   xmlns:cc="http://creativecommons.org/ns#"
   xmlns:rdf="http://www.w3.org/1999/02/22-rdf-syntax-ns#"
   xmlns:svg="http://www.w3.org/2000/svg"
   xmlns="http://www.w3.org/2000/svg"
   xmlns:sodipodi="http://sodipodi.sourceforge.net/DTD/sodipodi-0.dtd"
   xmlns:inkscape="http://www.inkscape.org/namespaces/inkscape"
   display="block"
   version="1.1"
   viewBox="0 0 902.9 902.9"
   id="svg53"
   sodipodi:docname="logo-green-gray-square-padded.svg"
   inkscape:version="0.92.3 (2405546, 2018-03-11)">
  <sodipodi:namedview
     pagecolor="#ffffff"
     bordercolor="#666666"
     borderopacity="1"
     objecttolerance="10"
     gridtolerance="10"
     guidetolerance="10"
     inkscape:pageopacity="0"
     inkscape:pageshadow="2"
     inkscape:window-width="1920"
     inkscape:window-height="1027"
     id="namedview55"
     showgrid="false"
     inkscape:pagecheckerboard="true"
     inkscape:zoom="0.63"
     inkscape:cx="474.80248"
     inkscape:cy="451.45001"
     inkscape:window-x="-8"
     inkscape:window-y="-8"
     inkscape:window-maximized="1"
     inkscape:current-layer="svg53" />
  <metadata
     id="metadata2">
    <rdf:RDF>
      <cc:Work
         rdf:about="">
        <dc:format>image/svg+xml</dc:format>
        <dc:type
           rdf:resource="http://purl.org/dc/dcmitype/StillImage" />
        <dc:title />
      </cc:Work>
    </rdf:RDF>
  </metadata>
  <rect
     style="fill:#42f1ab;fill-opacity:1"
     id="rect1478"
     width="100%"
     height="100%"
     x="0"
     y="0" />
  <rect
     x="-87.1"
     y="3.2183e-5"
     width="100%"
     height="100%"
     fill="none"
     id="rect4" />
  <defs
     id="defs17">
    <clipPath
       id="c">
      <path
         d="m87.1 902.9v-901.8h902.9v901.8z"
         id="path6" />
    </clipPath>
    <clipPath
       id="b">
      <path
         d="m380.6 876.4-107.8-107.7 161.3-161.3 107.7 107.8z"
         id="path9" />
    </clipPath>
    <clipPath
       id="a">
      <path
         d="m292.2 666.9v-440h489.3v440z"
         id="path12" />
    </clipPath>
    <style
       type="text/css"
       id="style15"><![CDATA[
.g0_1{
fill: #FFFFFF;
}
.g1_1{
fill: #222222;
}
.g2_1{
fill: #42F1AB;
}
.g3_1{
fill: #3C413F;
}
]]></style>
  </defs>
  <path
     style="fill:#3c413f"
     inkscape:connector-curvature="0"
     id="path25"
     d="m 215.6,180.30003 h 167.1 v 264.3 H 121.9 v -170.6 c 0,-51.7 42,-93.7 93.7,-93.7 z"
     class="g3_1" />
  <path
     style="fill:#3c413f"
     inkscape:connector-curvature="0"
     id="path27"
     d="m 376.7,180.30003 h 144 v 264.3 h -144 z"
     class="g3_1" />
  <path
     style="fill:#3c413f"
     inkscape:connector-curvature="0"
     id="path29"
     d="m 517.3,180.30003 h 165.4 c 51.7,0 93.7,42 93.7,93.7 v 170.6 H 517.3 Z"
     class="g3_1" />
  <path
     style="fill:#3c413f"
     inkscape:connector-curvature="0"
     id="path31"
     d="m 121.9,439.60003 h 260.8 v 26.9 H 121.9 Z"
     class="g3_1" />
  <path
     style="fill:#3c413f"
     inkscape:connector-curvature="0"
     id="path33"
     d="m 378.5,439.60003 h 142.2 v 26.9 H 378.5 Z"
     class="g3_1" />
  <path
     style="fill:#3c413f"
     inkscape:connector-curvature="0"
     id="path35"
     d="m 517.3,439.60003 h 259.1 v 26.9 H 517.3 Z"
     class="g3_1" />
  <path
     style="fill:#3c413f"
     inkscape:connector-curvature="0"
     id="path37"
     d="m 121.9,464.60003 h 260.8 v 259.1 H 215.6 c -51.7,0 -93.7,-42 -93.7,-93.7 z"
     class="g3_1" />
  <path
     style="fill:#3c413f"
     inkscape:connector-curvature="0"
     id="path39"
     d="m 379.4,464.60003 h 141.3 v 259.1 H 379.4 Z"
     class="g3_1" />
  <path
     style="fill:#3c413f"
     inkscape:connector-curvature="0"
     id="path41"
     d="m 517.3,464.60003 h 259.1 v 165.4 c 0,51.7 -42,93.7 -93.7,93.7 H 517.3 Z"
     class="g3_1" />
  <g
     id="g45"
     clip-path="url(#b)"
     transform="translate(-87.1,3.2207e-5)">
    <path
       style="fill:#3c413f"
       inkscape:connector-curvature="0"
       id="path43"
       d="M 541.8,715.2 380.6,876.4 378.8,662.7 Z"
       class="g3_1" />
  </g>
  <g
     id="g49"
     clip-path="url(#a)"
     transform="translate(-87.1,3.2207e-5)">
    <path
       style="fill:#42f1ab"
       inkscape:connector-curvature="0"
       id="path47"
       d="m 779.8,335.5 c -27.6,-141.6 -200.4,-144 -243,-11.6 -42.6,-132.4 -215.4,-130 -243,11.6 -25,128.6 243,331.4 243,331.4 0,0 268,-202.8 243,-331.4 z"
       class="g2_1" />
  </g>
</svg>
