<svg xmlns="http://www.w3.org/2000/svg" viewBox="0 0 872.79999 872.79999" style="display:block" id="svg4009"><rect id="backgroundrect" width="100%" height="100%" x="-126.9" y="-15.7" style="fill:none;stroke:none"/><defs id="defs3990"><clipPath id="c0_1"><path d="M341.3 888.5L206 753.2l201.7-201.7L543 686.8z" id="svg_1"/></clipPath><clipPath id="c1_1"><path d="M230.3 626.8V74.5h614.2v552.3z" id="svg_2"/></clipPath><mask maskUnits="userSpaceOnUse" id="mask6441"><g id="g6449"><path id="rect6443" style="fill:#fff" d="M13.512931-24.458593h848.61206v933.74347H13.512931z"/><g style="fill:#000" transform="translate(-100.45001 -15.699985)" clip-path="url(#c1_1)" id="g6447"><path d="M842.4 210.9C807.8 33 590.9 30.1 537.4 196.3 483.9 30.1 267 33 232.4 210.9c-31.4 161.3 305 415.9 305 415.9s336.4-254.6 305-415.9z" class="g0_1" id="path6445" style="fill:#000"/></g></g></mask><mask maskUnits="userSpaceOnUse" id="mask6451"><g id="g6459" transform="translate(100.45001 15.699985)"><path id="rect6453" style="fill:#fff" d="M13.512931-24.458593h848.61206v933.74347H13.512931z"/><g style="fill:#000" transform="translate(-100.45001 -15.699985)" clip-path="url(#c1_1)" id="g6457"><path d="M842.4 210.9C807.8 33 590.9 30.1 537.4 196.3 483.9 30.1 267 33 232.4 210.9c-31.4 161.3 305 415.9 305 415.9s336.4-254.6 305-415.9z" class="g0_1" id="path6455" style="fill:#000"/></g></g></mask><mask maskUnits="userSpaceOnUse" id="mask6461"><g id="g6469"><path id="rect6463" style="fill:#fff" d="M13.512931-24.458593h848.61206v933.74347H13.512931z"/><g style="fill:#000" transform="translate(-100.45001 -15.699985)" clip-path="url(#c1_1)" id="g6467"><path d="M842.4 210.9C807.8 33 590.9 30.1 537.4 196.3 483.9 30.1 267 33 232.4 210.9c-31.4 161.3 305 415.9 305 415.9s336.4-254.6 305-415.9z" class="g0_1" id="path6465" style="fill:#000"/></g></g></mask><mask maskUnits="userSpaceOnUse" id="mask6471"><g id="g6479"><path id="rect6473" style="fill:#fff" d="M13.512931-24.458593h848.61206v933.74347H13.512931z"/><g style="fill:#000" transform="translate(-100.45001 -15.699985)" clip-path="url(#c1_1)" id="g6477"><path d="M842.4 210.9C807.8 33 590.9 30.1 537.4 196.3 483.9 30.1 267 33 232.4 210.9c-31.4 161.3 305 415.9 305 415.9s336.4-254.6 305-415.9z" class="g0_1" id="path6475" style="fill:#000"/></g></g></mask><mask maskUnits="userSpaceOnUse" id="mask6481"><g id="g6489"><path id="rect6483" style="fill:#fff" d="M13.512931-24.458593h848.61206v933.74347H13.512931z"/><g style="fill:#000" transform="translate(-100.45001 -15.699985)" clip-path="url(#c1_1)" id="g6487"><path d="M842.4 210.9C807.8 33 590.9 30.1 537.4 196.3 483.9 30.1 267 33 232.4 210.9c-31.4 161.3 305 415.9 305 415.9s336.4-254.6 305-415.9z" class="g0_1" id="path6485" style="fill:#000"/></g></g></mask><mask maskUnits="userSpaceOnUse" id="mask6491"><g id="g6499"><path id="rect6493" style="fill:#fff" d="M13.512931-24.458593h848.61206v933.74347H13.512931z"/><g style="fill:#000" transform="translate(-100.45001 -15.699985)" clip-path="url(#c1_1)" id="g6497"><path d="M842.4 210.9C807.8 33 590.9 30.1 537.4 196.3 483.9 30.1 267 33 232.4 210.9c-31.4 161.3 305 415.9 305 415.9s336.4-254.6 305-415.9z" class="g0_1" id="path6495" style="fill:#000"/></g></g></mask><mask maskUnits="userSpaceOnUse" id="mask6501"><g id="g6509"><path id="rect6503" style="fill:#fff" d="M13.512931-24.458593h848.61206v933.74347H13.512931z"/><g style="fill:#000" transform="translate(-100.45001 -15.699985)" clip-path="url(#c1_1)" id="g6507"><path d="M842.4 210.9C807.8 33 590.9 30.1 537.4 196.3 483.9 30.1 267 33 232.4 210.9c-31.4 161.3 305 415.9 305 415.9s336.4-254.6 305-415.9z" class="g0_1" id="path6505" style="fill:#000"/></g></g></mask><mask maskUnits="userSpaceOnUse" id="mask6511"><g id="g6519"><path id="rect6513" style="fill:#fff" d="M13.512931-24.458593h848.61206v933.74347H13.512931z"/><g style="fill:#000" transform="translate(-100.45001 -15.699985)" clip-path="url(#c1_1)" id="g6517"><path d="M842.4 210.9C807.8 33 590.9 30.1 537.4 196.3 483.9 30.1 267 33 232.4 210.9c-31.4 161.3 305 415.9 305 415.9s336.4-254.6 305-415.9z" class="g0_1" id="path6515" style="fill:#000"/></g></g></mask><mask maskUnits="userSpaceOnUse" id="mask6521"><g id="g6529"><path id="rect6523" style="fill:#fff" d="M13.512931-24.458593h848.61206v933.74347H13.512931z"/><g style="fill:#000" transform="translate(-100.45001 -15.699985)" clip-path="url(#c1_1)" id="g6527"><path d="M842.4 210.9C807.8 33 590.9 30.1 537.4 196.3 483.9 30.1 267 33 232.4 210.9c-31.4 161.3 305 415.9 305 415.9s336.4-254.6 305-415.9z" class="g0_1" id="path6525" style="fill:#000"/></g></g></mask><mask maskUnits="userSpaceOnUse" id="mask6531"><g id="g6539"><path id="rect6533" style="fill:#fff" d="M13.512931-24.458593h848.61206v933.74347H13.512931z"/><g style="fill:#000" transform="translate(-100.45001 -15.699985)" clip-path="url(#c1_1)" id="g6537"><path d="M842.4 210.9C807.8 33 590.9 30.1 537.4 196.3 483.9 30.1 267 33 232.4 210.9c-31.4 161.3 305 415.9 305 415.9s336.4-254.6 305-415.9z" class="g0_1" id="path6535" style="fill:#000"/></g></g></mask><mask maskUnits="userSpaceOnUse" id="mask6541"><g id="g6549"><path id="rect6543" style="fill:#fff" d="M13.512931-24.458593h848.61206v933.74347H13.512931z"/><g style="fill:#000" transform="translate(-100.45001 -15.699985)" clip-path="url(#c1_1)" id="g6547"><path d="M842.4 210.9C807.8 33 590.9 30.1 537.4 196.3 483.9 30.1 267 33 232.4 210.9c-31.4 161.3 305 415.9 305 415.9s336.4-254.6 305-415.9z" class="g0_1" id="path6545" style="fill:#000"/></g></g></mask></defs><path style="fill:#3c413f" id="svg_6" class="g1_1" d="M143.74999.000015h209.4V330.80001h-326.7V117.30002c0-64.700005 52.6-117.300005 117.3-117.300005z" mask="url(#mask6541)"/><path style="fill:#3c413f;stroke-width:1.43413794" id="svg_7" class="g1_1" d="M245.6543.000015h370.83232V330.80001H245.6543z" mask="url(#mask6531)"/><path style="fill:#3c413f" id="svg_8" class="g1_1" d="M521.74999.000015h207.2c64.8 0 117.4 52.6 117.4 117.300005v213.49999h-324.6z" mask="url(#mask6521)"/><path style="fill:#3c413f;stroke-width:2.66361642" id="svg_9" class="g1_1" d="M26.44999 225.85562h326.7v239.09654h-326.7z" mask="url(#mask6511)"/><path style="fill:#3c413f" id="svg_10" class="g1_1" d="M347.84999 324.50001h178.1v33.7h-178.1z" mask="url(#mask6501)"/><path style="fill:#3c413f;stroke-width:2.33470488" id="svg_11" class="g1_1" d="M521.74999 252.88148h324.6v183.69353h-324.6z" mask="url(#mask6491)"/><path style="fill:#3c413f" id="svg_12" class="g1_1" d="M26.44999 355.80001h326.7v324.4h-209.4c-64.7 0-117.3-52.6-117.3-117.29999V355.80001z" mask="url(#mask6481)"/><path style="fill:#3c413f;stroke-width:1.30782366" id="svg_13" class="g1_1" d="M286.89051 355.80001h302.57025v324.4H286.89051z" mask="url(#mask6471)"/><path style="fill:#3c413f" id="svg_14" class="g1_1" d="M521.74999 355.80001h324.6v207.10001c0 64.7-52.6 117.29999-117.4 117.29999h-207.2z" mask="url(#mask6461)"/><g id="svg_15" clip-path="url(#c0_1)" transform="translate(-100.45001 -15.699985)" mask="url(#mask6451)"><path style="fill:#3c413f" id="svg_16" class="g1_1" d="M543 686.8L341.3 888.5l-2.7-267.9z"/></g><path style="display:block;fill:#3c413f;stroke-width:6.11767006" id="svg_9-6" class="g1_1" d="M104.20602 34.363816h691.54912V630.20172H104.20602z" mask="url(#mask6441)"/></svg>
