<?xml version="1.0" encoding="UTF-8"?>
<svg display="block" version="1.1" viewBox="0 0 902.9 902.9" xmlns="http://www.w3.org/2000/svg" xmlns:cc="http://creativecommons.org/ns#" xmlns:dc="http://purl.org/dc/elements/1.1/" xmlns:rdf="http://www.w3.org/1999/02/22-rdf-syntax-ns#">
<metadata>
<rdf:RDF>
<cc:Work rdf:about="">
<dc:format>image/svg+xml</dc:format>
<dc:type rdf:resource="http://purl.org/dc/dcmitype/StillImage"/>
<dc:title/>
</cc:Work>
</rdf:RDF>
</metadata>
<rect x="-87.1" y="3.2183e-5" width="100%" height="100%" fill="none"/>
<defs>
<clipPath id="c">
<path d="m87.1 902.9v-901.8h902.9v901.8z"/>
</clipPath>
<clipPath id="b">
<path d="m380.6 876.4-107.8-107.7 161.3-161.3 107.7 107.8z"/>
</clipPath>
<clipPath id="a">
<path d="m292.2 666.9v-440h489.3v440z"/>
</clipPath>
<style type="text/css"><![CDATA[
.g0_1{
fill: #FFFFFF;
}
.g1_1{
fill: #222222;
}
.g2_1{
fill: #42F1AB;
}
.g3_1{
fill: #3C413F;
}
]]></style>
</defs>
<g class="currentLayer" transform="translate(-87.1 3.2207e-5)">
<title>Layer 1</title>
<g clip-path="url(#c)">
<path class="g2_1" d="m990 452.6c0 7.4-0.2 14.8-0.6 22.2-0.3 7.3-0.9 14.7-1.6 22.1-0.7 7.3-1.6 14.6-2.7 21.9-1.1 7.4-2.3 14.6-3.8 21.9-1.4 7.2-3 14.4-4.8 21.6s-3.8 14.3-5.9 21.4c-2.2 7-4.5 14-7 21-2.5 6.9-5.1 13.8-8 20.7-2.8 6.8-5.8 13.5-9 20.2-3.1 6.7-6.4 13.3-9.9 19.8s-7.1 13-10.9 19.3-7.8 12.6-11.9 18.7c-4.1 6.2-8.3 12.2-12.8 18.1-4.4 6-8.9 11.8-13.6 17.5s-9.5 11.3-14.5 16.8c-4.9 5.5-10 10.8-15.2 16-5.3 5.3-10.6 10.3-16.1 15.3s-11.1 9.8-16.8 14.5-11.5 9.2-17.4 13.6c-6 4.4-12 8.7-18.1 12.8-6.2 4.1-12.4 8-18.8 11.8-6.3 3.8-12.7 7.5-19.2 10.9-6.6 3.5-13.2 6.9-19.8 10-6.7 3.2-13.5 6.2-20.3 9s-13.7 5.5-20.7 8c-6.9 2.5-13.9 4.8-21 6.9-7.1 2.2-14.2 4.1-21.4 5.9-7.1 1.8-14.3 3.4-21.6 4.9-7.2 1.4-14.5 2.7-21.8 3.8s-14.7 2-22 2.7c-7.4 0.7-14.7 1.2-22.1 1.6s-14.8 0.6-22.2 0.6-14.7-0.2-22.1-0.6-14.8-0.9-22.1-1.6c-7.4-0.7-14.7-1.6-22-2.7s-14.6-2.4-21.8-3.8c-7.3-1.5-14.5-3.1-21.7-4.9-7.1-1.8-14.2-3.7-21.3-5.9-7.1-2.1-14.1-4.4-21.1-6.9-6.9-2.5-13.8-5.2-20.6-8-6.9-2.8-13.6-5.8-20.3-9-6.7-3.1-13.3-6.5-19.8-10-6.5-3.4-12.9-7.1-19.3-10.9-6.3-3.8-12.5-7.7-18.7-11.8-6.1-4.1-12.2-8.4-18.1-12.8s-11.8-8.9-17.5-13.6-11.3-9.5-16.7-14.5c-5.5-5-10.9-10-16.1-15.3-5.2-5.2-10.3-10.5-15.3-16-4.9-5.5-9.8-11.1-14.4-16.8-4.7-5.7-9.3-11.5-13.7-17.5-4.4-5.9-8.6-11.9-12.7-18.1-4.1-6.1-8.1-12.4-11.9-18.7s-7.4-12.8-10.9-19.3-6.8-13.1-10-19.8c-3.1-6.7-6.1-13.4-9-20.2-2.8-6.9-5.4-13.8-7.9-20.7-2.5-7-4.8-14-7-21-2.1-7.1-4.1-14.2-5.9-21.4s-3.4-14.4-4.8-21.6c-1.5-7.3-2.7-14.5-3.8-21.9-1.1-7.3-2-14.6-2.7-21.9-0.8-7.4-1.3-14.8-1.7-22.1-0.3-7.4-0.5-14.8-0.5-22.2s0.2-14.8 0.5-22.2c0.4-7.3 0.9-14.7 1.7-22 0.7-7.4 1.6-14.7 2.7-22 1.1-7.4 2.3-14.6 3.8-21.9 1.4-7.2 3-14.4 4.8-21.6s3.8-14.3 5.9-21.3c2.2-7.1 4.5-14.1 7-21.1 2.5-6.9 5.1-13.8 7.9-20.7 2.9-6.8 5.9-13.5 9-20.2 3.2-6.7 6.5-13.3 10-19.8s7.1-13 10.9-19.3 7.8-12.6 11.9-18.7c4.1-6.2 8.3-12.2 12.7-18.1 4.4-6 9-11.8 13.7-17.5 4.6-5.7 9.5-11.3 14.4-16.8 5-5.5 10.1-10.8 15.3-16 5.2-5.3 10.6-10.3 16.1-15.3 5.4-5 11-9.8 16.7-14.5s11.6-9.2 17.5-13.6 12-8.7 18.1-12.8c6.2-4.1 12.4-8 18.7-11.8 6.4-3.8 12.8-7.5 19.3-10.9 6.5-3.5 13.1-6.9 19.8-10 6.7-3.2 13.4-6.2 20.3-9 6.8-2.8 13.7-5.5 20.6-8 7-2.5 14-4.8 21.1-6.9 7.1-2.2 14.2-4.1 21.3-5.9 7.2-1.8 14.4-3.4 21.7-4.9 7.2-1.4 14.5-2.7 21.8-3.8s14.6-2 22-2.7c7.3-0.7 14.7-1.2 22.1-1.6s14.7-0.6 22.1-0.6 14.8 0.2 22.2 0.6 14.7 0.9 22.1 1.6c7.3 0.7 14.7 1.6 22 2.7s14.6 2.4 21.8 3.8c7.3 1.5 14.5 3.1 21.6 4.9 7.2 1.8 14.3 3.7 21.4 5.9 7.1 2.1 14.1 4.4 21 6.9 7 2.5 13.9 5.2 20.7 8s13.6 5.8 20.3 9c6.6 3.1 13.2 6.5 19.8 10 6.5 3.4 12.9 7.1 19.2 10.9 6.4 3.8 12.6 7.7 18.8 11.8 6.1 4.1 12.1 8.4 18.1 12.8 5.9 4.4 11.7 8.9 17.4 13.6s11.3 9.5 16.8 14.5 10.8 10 16.1 15.3c5.2 5.2 10.3 10.5 15.2 16 5 5.5 9.8 11.1 14.5 16.8s9.2 11.5 13.6 17.5c4.5 5.9 8.7 11.9 12.8 18.1 4.1 6.1 8.1 12.4 11.9 18.7s7.4 12.8 10.9 19.3 6.8 13.1 9.9 19.8c3.2 6.7 6.2 13.4 9 20.2 2.9 6.9 5.5 13.8 8 20.7 2.5 7 4.8 14 7 21.1 2.1 7 4.1 14.1 5.9 21.3s3.4 14.4 4.8 21.6c1.5 7.3 2.7 14.5 3.8 21.9 1.1 7.3 2 14.6 2.7 22 0.7 7.3 1.3 14.7 1.6 22 0.4 7.4 0.6 14.8 0.6 22.2z" fill="#42f1ab"/>
</g>
<path class="g3_1" d="m302.7 180.3h167.1v264.3h-260.8v-170.6c0-51.7 42-93.7 93.7-93.7z" fill="#3c413f"/>
<path class="g3_1" d="m463.8 180.3h144v264.3h-144z" fill="#3c413f"/>
<path class="g3_1" d="m604.4 180.3h165.4c51.7 0 93.7 42 93.7 93.7v170.6h-259.1z" fill="#3c413f"/>
<path class="g3_1" d="m209 439.6h260.8v26.9h-260.8z" fill="#3c413f"/>
<path class="g3_1" d="m465.6 439.6h142.2v26.9h-142.2z" fill="#3c413f"/>
<path class="g3_1" d="m604.4 439.6h259.1v26.9h-259.1z" fill="#3c413f"/>
<path class="g3_1" d="m209 464.6h260.8v259.1h-167.1c-51.7 0-93.7-42-93.7-93.7z" fill="#3c413f"/>
<path class="g3_1" d="m466.5 464.6h141.3v259.1h-141.3z" fill="#3c413f"/>
<path class="g3_1" d="m604.4 464.6h259.1v165.4c0 51.7-42 93.7-93.7 93.7h-165.4z" fill="#3c413f"/>
<g clip-path="url(#b)">
<path class="g3_1" d="m541.8 715.2-161.2 161.2-1.8-213.7z" fill="#3c413f"/>
</g>
<g clip-path="url(#a)">
<path class="g2_1" d="m779.8 335.5c-27.6-141.6-200.4-144-243-11.6-42.6-132.4-215.4-130-243 11.6-25 128.6 243 331.4 243 331.4s268-202.8 243-331.4z" fill="#42f1ab"/>
</g>
</g>
</svg>
