<?xml version="1.0" encoding="UTF-8" standalone="no"?>
<!-- Created with Inkscape (http://www.inkscape.org/) -->

<svg
   xmlns:osb="http://www.openswatchbook.org/uri/2009/osb"
   xmlns:dc="http://purl.org/dc/elements/1.1/"
   xmlns:cc="http://creativecommons.org/ns#"
   xmlns:rdf="http://www.w3.org/1999/02/22-rdf-syntax-ns#"
   xmlns:svg="http://www.w3.org/2000/svg"
   xmlns="http://www.w3.org/2000/svg"
   xmlns:sodipodi="http://sodipodi.sourceforge.net/DTD/sodipodi-0.dtd"
   xmlns:inkscape="http://www.inkscape.org/namespaces/inkscape"
   width="173.72552mm"
   height="113.6mm"
   viewBox="0 0 173.72553 113.6"
   version="1.1"
   id="svg106"
   inkscape:version="0.92.3 (2405546, 2018-03-11)"
   sodipodi:docname="others2.svg">
  <defs
     id="defs100">
    <linearGradient
       id="linearGradient3203"
       osb:paint="solid">
      <stop
         style="stop-color:#43d3f5;stop-opacity:1;"
         offset="0"
         id="stop3201" />
    </linearGradient>
  </defs>
  <sodipodi:namedview
     id="base"
     pagecolor="#ffffff"
     bordercolor="#666666"
     borderopacity="1.0"
     inkscape:pageopacity="0.52156863"
     inkscape:pageshadow="2"
     inkscape:zoom="0.7"
     inkscape:cx="254.73402"
     inkscape:cy="380.80569"
     inkscape:document-units="mm"
     inkscape:current-layer="layer1"
     showgrid="false"
     inkscape:window-width="1920"
     inkscape:window-height="1027"
     inkscape:window-x="-8"
     inkscape:window-y="-8"
     inkscape:window-maximized="1"
     inkscape:pagecheckerboard="true"
     fit-margin-top="0"
     fit-margin-left="0"
     fit-margin-right="0"
     fit-margin-bottom="0"
     units="mm" />
  <metadata
     id="metadata103">
    <rdf:RDF>
      <cc:Work
         rdf:about="">
        <dc:format>image/svg+xml</dc:format>
        <dc:type
           rdf:resource="http://purl.org/dc/dcmitype/StillImage" />
        <dc:title></dc:title>
      </cc:Work>
    </rdf:RDF>
  </metadata>
  <g
     inkscape:groupmode="layer"
     id="layer3"
     inkscape:label="white background"
     transform="translate(-10.261258,-85.891663)" />
  <g
     inkscape:label="Layer 1"
     inkscape:groupmode="layer"
     id="layer1"
     transform="translate(72.893504,-150.81429)">
    <path
       style="fill:#e0bf4b;fill-opacity:1;stroke-width:0.20281406"
       d="m -50.782522,150.81429 a 15.689837,15.689837 0 0 0 -15.689838,15.68984 15.689837,15.689837 0 0 0 15.689838,15.68984 15.689837,15.689837 0 0 0 15.689838,-15.68984 15.689837,15.689837 0 0 0 -15.689838,-15.68984 z m -7.386672,35.36768 c -8.086299,0 -14.72431,6.61386 -14.72431,14.7243 v 9.55911 5.1652 c 0,5.76989 3.381495,10.79945 8.255554,13.20908 v -27.18473 h 1.375687 v 27.78205 0.36301 23.17269 3.25866 c 0,4.51384 3.693243,8.18295 8.18295,8.18295 h 4.513656 4.031366 c 4.489707,0 8.182948,-3.66911 8.182948,-8.18295 v -3.66929 -22.76206 -0.36301 -27.78205 h 1.37569 v 27.18473 c 4.873981,-2.40964 8.255078,-7.43921 8.255078,-13.20908 v -5.1652 -1.47281 -8.0863 c 0,-8.11044 -6.638009,-14.7243 -14.724309,-14.7243 h -6.613492 -1.47281 z"
       id="path110"
       inkscape:connector-curvature="0" />
    <flowRoot
       xml:space="preserve"
       id="flowRoot4892"
       style="font-style:normal;font-weight:normal;font-size:40px;line-height:1.25;font-family:sans-serif;letter-spacing:0px;word-spacing:0px;fill:#000000;fill-opacity:1;stroke:none"
       transform="matrix(0.26458333,0,0,0.26458333,-83.154762,64.922623)"><flowRegion
         id="flowRegion4894"><rect
           id="rect4896"
           width="3.0304577"
           height="79.802048"
           x="260.61935"
           y="197.06076" /></flowRegion><flowPara
         id="flowPara4898" /></flowRoot>    <flowRoot
       xml:space="preserve"
       id="flowRoot4900"
       style="font-style:normal;font-weight:normal;font-size:40px;line-height:1.25;font-family:sans-serif;letter-spacing:0px;word-spacing:0px;fill:#000000;fill-opacity:1;stroke:none"
       transform="matrix(0.26458333,0,0,0.26458333,-83.154762,64.922623)"><flowRegion
         id="flowRegion4902"><rect
           id="rect4904"
           width="87.88327"
           height="79.802048"
           x="227.28432"
           y="79.883064" /></flowRegion><flowPara
         id="flowPara4906" /></flowRoot>    <flowRoot
       xml:space="preserve"
       id="flowRoot70"
       style="font-style:normal;font-weight:normal;font-size:40px;line-height:1.25;font-family:sans-serif;letter-spacing:0px;word-spacing:0px;fill:#000000;fill-opacity:1;stroke:none"><flowRegion
         id="flowRegion72"><rect
           id="rect74"
           width="84.852814"
           height="98.994949"
           x="684.88342"
           y="515.25885" /></flowRegion><flowPara
         id="flowPara76" /></flowRoot>    <text
       xml:space="preserve"
       style="font-style:normal;font-weight:normal;font-size:10.58333302px;line-height:1.25;font-family:sans-serif;letter-spacing:0px;word-spacing:0px;fill:#000000;fill-opacity:1;stroke:none;stroke-width:0.26458332"
       x="95.249992"
       y="138.09882"
       id="text1733"><tspan
         sodipodi:role="line"
         id="tspan1731"
         x="95.249992"
         y="147.75432"
         style="stroke-width:0.26458332" /></text>
    <path
       style="fill:#993ccc;fill-opacity:1;stroke-width:0.20281406"
       d="m 13.993776,150.81429 a 15.689837,15.689837 0 0 0 -15.689837,15.68984 15.689837,15.689837 0 0 0 15.689837,15.68984 15.689837,15.689837 0 0 0 15.689838,-15.68984 15.689837,15.689837 0 0 0 -15.689838,-15.68984 z m -7.386671,35.36768 c -8.086299,0 -14.72431,6.61386 -14.72431,14.7243 v 9.55911 5.1652 c 0,5.76989 3.381495,10.79945 8.25555395,13.20908 V 201.65493 H 1.514036 v 27.78205 0.36301 23.17269 3.25866 c 0,4.51384 3.693243,8.18295 8.1829495,8.18295 h 4.5136555 4.031366 c 4.489706,0 8.182948,-3.66911 8.182948,-8.18295 v -3.66929 -22.76206 -0.36301 -27.78205 h 1.375691 v 27.18473 c 4.873979,-2.40964 8.255076,-7.43921 8.255076,-13.20908 v -5.1652 -1.47281 -8.0863 c 0,-8.11044 -6.638007,-14.7243 -14.724308,-14.7243 h -6.613492 -1.47281 z"
       id="path110-3"
       inkscape:connector-curvature="0" />
    <path
       style="fill:#1228b6;fill-opacity:1;stroke-width:0.20281406"
       d="m 78.770077,150.81429 a 15.689837,15.689837 0 0 0 -15.689838,15.68984 15.689837,15.689837 0 0 0 15.689838,15.68984 15.689837,15.689837 0 0 0 15.689838,-15.68984 15.689837,15.689837 0 0 0 -15.689838,-15.68984 z m -7.386672,35.36768 c -8.086299,0 -14.72431,6.61386 -14.72431,14.7243 v 9.55911 5.1652 c 0,5.76989 3.381495,10.79945 8.255554,13.20908 v -27.18473 h 1.375687 v 27.78205 0.36301 23.17269 3.25866 c 0,4.51384 3.693243,8.18295 8.18295,8.18295 h 4.513656 4.031366 c 4.489706,0 8.182948,-3.66911 8.182948,-8.18295 v -3.66929 -22.76206 -0.36301 -27.78205 h 1.375691 v 27.18473 c 4.873979,-2.40964 8.255073,-7.43921 8.255073,-13.20908 v -5.1652 -1.47281 -8.0863 c 0,-8.11044 -6.638004,-14.7243 -14.724305,-14.7243 h -6.613492 -1.47281 z"
       id="path110-37"
       inkscape:connector-curvature="0" />
  </g>
</svg>
