<svg xmlns="http://www.w3.org/2000/svg" viewBox="0 0 827.29999 830.70001" style="display:block" id="svg3807"><rect id="backgroundrect" width="100%" height="100%" x="-124.9" y="-37.799999" style="fill:none;stroke:none"/><defs id="defs3799"><clipPath id="c0_1"><path d="M0 904.1V0h1077.1v904.1z" id="svg_1"/></clipPath><clipPath id="c1_1"><path d="M124.9 868.5V37.8h827.3v830.7z" id="svg_2"/></clipPath></defs><g class="currentLayer" id="g3805" transform="translate(-124.9 -37.8)"><g clip-path="url(#c1_1)" id="svg_7"><path d="M929.4 845.7c-30.3 30.5-79.5 30.5-109.8 0L637.5 662.9c-51.3 31.8-111.2 51-176 51-185.9 0-336.6-151.3-336.6-338S275.6 37.8 461.5 37.8c186 0 336.7 151.4 336.7 338.1 0 65-19.1 125.1-50.8 176.7l182 182.8c30.4 30.4 30.4 79.8 0 110.3zM461.5 141.9c-128.7 0-233 104.7-233 234 0 129.2 104.3 234 233 234 128.8 0 233.1-104.8 233.1-234 0-129.3-104.3-234-233.1-234z" id="svg_8" style="fill:#3c413f"/></g></g></svg>
