<svg xmlns="http://www.w3.org/2000/svg" width="827.29999" height="830.67499" style="display:block" id="svg3870"><rect id="backgroundrect" width="100%" height="100%" x="-124.9" y="-36.700001" style="fill:none;stroke:none"/><defs id="defs3862"><clipPath id="c0_1"><path d="M124.9 867.4V36.7h827.3v830.7z" id="svg_1"/></clipPath></defs><g class="currentLayer" id="g3868" transform="translate(-124.9 -36.7)"><g clip-path="url(#c0_1)" id="svg_5"><path d="M929.4 844.5c-30.3 30.5-79.5 30.5-109.8 0L637.5 661.7c-51.3 31.9-111.2 51.1-176 51.1-185.9 0-336.6-151.4-336.6-338.1 0-186.7 150.7-338 336.6-338 186 0 336.7 151.3 336.7 338 0 65-19.1 125.2-50.8 176.7l182 182.8c30.4 30.5 30.4 79.9 0 110.3zM461.5 140.7c-128.7 0-233 104.8-233 234 0 129.3 104.3 234.1 233 234.1 128.8 0 233.1-104.8 233.1-234.1 0-129.2-104.3-234-233.1-234z" id="svg_6" style="fill:#42f1ab"/></g></g></svg>