<?xml version="1.0" encoding="UTF-8" standalone="no"?>
<svg
   xmlns:dc="http://purl.org/dc/elements/1.1/"
   xmlns:cc="http://creativecommons.org/ns#"
   xmlns:rdf="http://www.w3.org/1999/02/22-rdf-syntax-ns#"
   xmlns:svg="http://www.w3.org/2000/svg"
   xmlns="http://www.w3.org/2000/svg"
   xmlns:sodipodi="http://sodipodi.sourceforge.net/DTD/sodipodi-0.dtd"
   xmlns:inkscape="http://www.inkscape.org/namespaces/inkscape"
   height="208.49167mm"
   id="svg106"
   version="1.1"
   viewBox="0 0 248.70833 208.49167"
   width="248.70833mm"
   sodipodi:docname="processed.svg"
   inkscape:version="0.92.3 (2405546, 2018-03-11)">
  <defs
     id="defs100">
    <inkscape:path-effect
       effect="powerstroke"
       end_linecap_type="zerowidth"
       id="path-effect4054"
       interpolator_beta="0.2"
       interpolator_type="CubicBezierJohan"
       is_visible="true"
       linejoin_type="extrp_arc"
       miter_limit="4"
       offset_points="1,0.13229166"
       sort_points="true"
       start_linecap_type="zerowidth" />
    <inkscape:path-effect
       effect="powerstroke"
       end_linecap_type="zerowidth"
       id="path-effect4050"
       interpolator_beta="0.2"
       interpolator_type="CubicBezierJohan"
       is_visible="true"
       linejoin_type="extrp_arc"
       miter_limit="4"
       offset_points="1,0.13229166"
       sort_points="true"
       start_linecap_type="zerowidth" />
    <inkscape:path-effect
       effect="powerstroke"
       end_linecap_type="zerowidth"
       id="path-effect4046"
       interpolator_beta="0.2"
       interpolator_type="CubicBezierJohan"
       is_visible="true"
       linejoin_type="extrp_arc"
       miter_limit="4"
       offset_points="1,0.13229166"
       sort_points="true"
       start_linecap_type="zerowidth" />
    <inkscape:path-effect
       effect="powerstroke"
       end_linecap_type="zerowidth"
       id="path-effect4042"
       interpolator_beta="0.2"
       interpolator_type="CubicBezierJohan"
       is_visible="true"
       linejoin_type="extrp_arc"
       miter_limit="4"
       offset_points="0,0.13229166"
       sort_points="true"
       start_linecap_type="zerowidth" />
    <inkscape:path-effect
       effect="powerstroke"
       end_linecap_type="zerowidth"
       id="path-effect4038"
       interpolator_beta="0.2"
       interpolator_type="CubicBezierJohan"
       is_visible="true"
       linejoin_type="extrp_arc"
       miter_limit="4"
       offset_points="0,0.13229166"
       sort_points="true"
       start_linecap_type="zerowidth" />
  </defs>
  <sodipodi:namedview
     bordercolor="#666666"
     borderopacity="1.0"
     id="base"
     pagecolor="#ffffff"
     showgrid="false"
     inkscape:current-layer="layer1"
     inkscape:cx="275.48317"
     inkscape:cy="414.82144"
     inkscape:document-units="mm"
     inkscape:pagecheckerboard="true"
     inkscape:pageopacity="0.0"
     inkscape:pageshadow="2"
     inkscape:window-height="1027"
     inkscape:window-maximized="1"
     inkscape:window-width="1920"
     inkscape:window-x="-8"
     inkscape:window-y="-8"
     inkscape:zoom="0.7" />
  <metadata
     id="metadata103">
    <rdf:RDF>
      <cc:Work
         rdf:about="">
        <dc:format>image/svg+xml</dc:format>
        <dc:type
           rdf:resource="http://purl.org/dc/dcmitype/StillImage" />
        <dc:title />
      </cc:Work>
    </rdf:RDF>
  </metadata>
  <g
     id="layer3"
     inkscape:groupmode="layer"
     inkscape:label="white background">
    <rect
       height="208.49167"
       id="rect1042"
       style="fill:#ffffff;fill-opacity:1;stroke-width:0.26458332"
       transform="translate(83.154761,-64.922622)"
       width="248.70833"
       x="-83.154762"
       y="64.922623" />
  </g>
  <g
     id="layer1"
     transform="translate(83.154762,-64.922623)"
     inkscape:groupmode="layer"
     inkscape:label="Layer 1">
    <path
       d="m -60.05082,74.299754 c -4.916755,0 -8.87491,4.048122 -8.87491,9.076966 v 8.524544 c 0,5.028844 3.958155,9.076966 8.87491,9.076966 h 13.521138 l 0.672312,10.46913 1.028877,16.02537 12.000817,-14.94482 9.273853,-11.54968 H 128.08653 c 4.91676,0 8.87491,-4.048122 8.87491,-9.076966 V 83.37672 c 0,-5.028844 -3.95815,-9.076966 -8.87491,-9.076966 z"
       id="rect4018-2-7"
       style="fill:#d5f3ff;fill-opacity:1;stroke-width:0.28445199"
       inkscape:connector-curvature="0" />
    <path
       d="m -50.404546,133.21608 a 15.689837,15.689837 0 0 0 -15.689838,15.68984 15.689837,15.689837 0 0 0 15.689838,15.68984 15.689837,15.689837 0 0 0 15.689838,-15.68984 15.689837,15.689837 0 0 0 -15.689838,-15.68984 z m -7.386672,35.36768 c -8.086299,0 -14.72431,6.61386 -14.72431,14.7243 v 9.55911 5.1652 c 0,5.76989 3.381495,10.79945 8.255554,13.20908 v -27.18473 h 1.375687 v 27.78205 0.36301 23.17269 3.25866 c 0,4.51384 3.693243,8.18295 8.18295,8.18295 h 4.513656 4.031366 c 4.489707,0 8.182948,-3.66911 8.182948,-8.18295 v -3.66929 -22.76206 -0.36301 -27.78205 h 1.37569 v 27.18473 c 4.873981,-2.40964 8.255078,-7.43921 8.255078,-13.20908 v -5.1652 -1.47281 -8.0863 c 0,-8.11044 -6.638009,-14.7243 -14.724309,-14.7243 h -6.613492 -1.47281 z"
       id="path110"
       style="fill:#eded2c;fill-opacity:1;stroke-width:0.20281406"
       inkscape:connector-curvature="0" />
    <path
       d="m -14.63137,112.58527 c -4.916757,0 -8.87491,4.04864 -8.87491,9.07748 v 128.34256 c 0,5.02884 3.958153,9.07748 8.87491,9.07748 H 94.131498 c 4.916754,0 8.874912,-4.04864 8.874912,-9.07748 v -69.17097 l 3.41116,-3.99614 14.44511,-16.92248 -17.85627,2.08927 v -40.34224 c 0,-5.02884 -3.958158,-9.07748 -8.874912,-9.07748 z"
       id="rect4018-2"
       style="fill:#d5f3ff;fill-opacity:1;stroke-width:0.52250749"
       inkscape:connector-curvature="0" />
    <flowRoot
       id="flowRoot4892"
       style="font-style:normal;font-weight:normal;font-size:40px;line-height:1.25;font-family:sans-serif;letter-spacing:0px;word-spacing:0px;fill:#000000;fill-opacity:1;stroke:none"
       transform="matrix(0.26458333,0,0,0.26458333,-83.154762,64.922623)"
       xml:space="preserve"><flowRegion
         id="flowRegion4894"><rect
           height="79.802048"
           id="rect4896"
           width="3.0304577"
           x="260.61935"
           y="197.06076" /></flowRegion><flowPara
         id="flowPara4898" /></flowRoot>    <flowRoot
       id="flowRoot4900"
       style="font-style:normal;font-weight:normal;font-size:40px;line-height:1.25;font-family:sans-serif;letter-spacing:0px;word-spacing:0px;fill:#000000;fill-opacity:1;stroke:none"
       transform="matrix(0.26458333,0,0,0.26458333,-83.154762,64.922623)"
       xml:space="preserve"><flowRegion
         id="flowRegion4902"><rect
           height="79.802048"
           id="rect4904"
           width="87.88327"
           x="227.28432"
           y="79.883064" /></flowRegion><flowPara
         id="flowPara4906" /></flowRoot>    <flowRoot
       id="flowRoot70"
       style="font-style:normal;font-weight:normal;font-size:40px;line-height:1.25;font-family:sans-serif;letter-spacing:0px;word-spacing:0px;fill:#000000;fill-opacity:1;stroke:none"
       xml:space="preserve"><flowRegion
         id="flowRegion72"><rect
           height="98.994949"
           id="rect74"
           width="84.852814"
           x="684.88342"
           y="515.25885" /></flowRegion><flowPara
         id="flowPara76" /></flowRoot>    <g
       id="g1729"
       transform="matrix(0.91231042,0,0,0.91231042,15.336435,7.5466313)">
      <path
         d="m 130.16465,137.74856 a 17.197916,17.197916 0 0 0 -17.19792,17.19792 17.197916,17.197916 0 0 0 17.19792,17.19792 17.197916,17.197916 0 0 0 17.19792,-17.19792 17.197916,17.197916 0 0 0 -17.19792,-17.19792 z m -8.09667,38.76715 c -8.86353,0 -16.13958,7.24958 -16.13958,16.13958 v 10.47791 5.66167 c 0,6.32448 3.70652,11.83747 9.04906,14.47871 v -29.79767 h 1.50792 v 30.45241 0.39791 25.4 3.57187 c 0,4.9477 4.04823,8.96948 8.96948,8.96948 h 4.9475 4.41885 c 4.92125,0 8.96948,-4.02178 8.96948,-8.96948 v -4.02198 -24.94989 -0.39791 -30.45241 h 1.50792 v 29.79767 c 5.34246,-2.64125 9.04854,-8.15425 9.04854,-14.47871 v -5.66167 -1.61437 -8.86354 c 0,-8.89 -7.27604,-16.13958 -16.13958,-16.13958 h -7.24917 -1.61437 z"
         id="path110-6"
         style="fill:#42f1ab;fill-opacity:1;stroke-width:0.22230816"
         inkscape:connector-curvature="0" />
      <text
         xml:space="preserve"
         style="font-style:normal;font-variant:normal;font-weight:bold;font-stretch:normal;font-size:14.11111164px;line-height:0.94999999;font-family:Raleway;-inkscape-font-specification:'Raleway, Bold';font-variant-ligatures:normal;font-variant-caps:normal;font-variant-numeric:normal;font-feature-settings:normal;text-align:start;letter-spacing:0px;word-spacing:0px;writing-mode:lr-tb;text-anchor:start;fill:#3c413f;fill-opacity:1;stroke:none;stroke-width:0.26458332"
         x="117.30232"
         y="197.77295"
         id="text905"><tspan
           sodipodi:role="line"
           x="117.30232"
           y="197.77295"
           id="tspan899"
           style="stroke-width:0.26458332"><tspan
             x="117.30232"
             y="197.77295"
             id="tspan895"
             style="stroke-width:0.26458332">Pro</tspan><tspan
             dx="0"
             x="139.73679"
             y="197.77295"
             id="tspan897"
             style="stroke-width:0.26458332" /></tspan><tspan
           sodipodi:role="line"
           x="117.30232"
           y="211.1785"
           id="tspan903"
           style="stroke-width:0.26458332"><tspan
             x="117.30232"
             y="211.1785"
             id="tspan901"
             style="stroke-width:0.26458332">Life</tspan></tspan></text>
      <rect
         height="5.6126604"
         id="rect994"
         style="fill:#42f1ab;fill-opacity:1;stroke-width:0.24879424"
         width="4.443356"
         x="124.91456"
         y="199.98199" />
      <path
         class="g3_1"
         d="m 125.51296,202.5051 c 0,1.05833 1.79917,2.32833 1.79917,2.32833 0,0 1.82562,-1.29646 1.82562,-2.32833 0,-0.55563 -0.42333,-1.00542 -0.92604,-1.00542 -0.39687,0 -0.74083,0.26459 -0.89958,0.635 -0.13229,-0.37041 -0.47625,-0.635 -0.87313,-0.635 -0.5027,0 -0.92604,0.44979 -0.92604,1.00542 z"
         id="path86"
         style="display:block;fill:#3c413f;fill-opacity:1;stroke-width:0.26458332"
         inkscape:connector-curvature="0" />
    </g>
    <text
       xml:space="preserve"
       style="font-style:normal;font-variant:normal;font-weight:normal;font-stretch:normal;font-size:11.28888893px;line-height:1.25;font-family:Raleway;-inkscape-font-specification:'Raleway, Normal';font-variant-ligatures:normal;font-variant-caps:normal;font-variant-numeric:normal;font-feature-settings:normal;text-align:start;letter-spacing:0px;word-spacing:0px;writing-mode:lr-tb;text-anchor:start;fill:#3c413f;fill-opacity:1;stroke:none;stroke-width:0.26458332"
       x="-62.344757"
       y="90.831985"
       id="text893"><tspan
         sodipodi:role="line"
         x="-62.344757"
         y="90.831985"
         id="tspan891"
         style="stroke-width:0.26458332"><tspan
           x="-62.344757"
           y="90.831985"
           style="font-size:11.99444485px;stroke-width:0.26458332"
           id="tspan889">Every child deserves to be wanted.</tspan></tspan></text>
    <text
       xml:space="preserve"
       style="font-style:normal;font-variant:normal;font-weight:bold;font-stretch:normal;font-size:11.28888893px;line-height:1.25;font-family:Raleway;-inkscape-font-specification:'Raleway, Bold';font-variant-ligatures:normal;font-variant-caps:normal;font-variant-numeric:normal;font-feature-settings:normal;text-align:center;letter-spacing:0px;word-spacing:0px;writing-mode:lr-tb;fill:#3c413f;fill-opacity:1;stroke:none;stroke-width:0.26458332"
       x="-7.2895565"
       y="129.39484"
       id="text887"><tspan
         sodipodi:role="line"
         x="-7.2895565"
         y="129.39484"
         id="tspan853"
         style="stroke-width:0.26458332"><tspan
           x="-7.2895565"
           y="129.39484"
           style="font-size:11.99444485px;stroke-width:0.26458332"
           id="tspan851">I agree. Children </tspan></tspan><tspan
         sodipodi:role="line"
         x="-11.365793"
         y="144.38789"
         id="tspan857"
         style="stroke-width:0.26458332"><tspan
           x="-11.365793"
           y="144.38789"
           style="font-size:11.99444485px;stroke-width:0.26458332"
           id="tspan855">should grow up in </tspan></tspan><tspan
         sodipodi:role="line"
         x="-16.004271"
         y="159.38095"
         id="tspan861"
         style="stroke-width:0.26458332"><tspan
           x="-16.004271"
           y="159.38095"
           style="font-size:11.99444485px;stroke-width:0.26458332"
           id="tspan859">happy homes. Can I </tspan></tspan><tspan
         sodipodi:role="line"
         x="-10.908974"
         y="174.37401"
         id="tspan865"
         style="stroke-width:0.26458332"><tspan
           x="-10.908974"
           y="174.37401"
           style="font-size:11.99444485px;stroke-width:0.26458332"
           id="tspan863">ask a question for </tspan></tspan><tspan
         sodipodi:role="line"
         x="-11.424359"
         y="189.36707"
         id="tspan869"
         style="stroke-width:0.26458332"><tspan
           x="-11.424359"
           y="189.36707"
           style="font-size:11.99444485px;stroke-width:0.26458332"
           id="tspan867">us to think about? </tspan></tspan><tspan
         sodipodi:role="line"
         x="-9.4565191"
         y="204.36012"
         id="tspan873"
         style="stroke-width:0.26458332"><tspan
           x="-9.4565191"
           y="204.36012"
           style="font-size:11.99444485px;stroke-width:0.26458332"
           id="tspan871">Bear with me. If a </tspan></tspan><tspan
         sodipodi:role="line"
         x="-3.7404191"
         y="219.35318"
         id="tspan877"
         style="stroke-width:0.26458332"><tspan
           x="-3.7404191"
           y="219.35318"
           style="font-size:11.99444485px;stroke-width:0.26458332"
           id="tspan875">two-year-old is </tspan></tspan><tspan
         sodipodi:role="line"
         x="-11.775761"
         y="234.34624"
         id="tspan881"
         style="stroke-width:0.26458332"><tspan
           x="-11.775761"
           y="234.34624"
           style="font-size:11.99444485px;stroke-width:0.26458332"
           id="tspan879">unwanted, should </tspan></tspan><tspan
         sodipodi:role="line"
         x="-15.770002"
         y="249.33931"
         id="tspan885"
         style="stroke-width:0.26458332"><tspan
           x="-15.770002"
           y="249.33931"
           style="font-size:11.99444485px;stroke-width:0.26458332"
           id="tspan883">he or she be killed?</tspan></tspan></text>
  </g>
</svg>
